# xmcd
#
# Track frame offsets:
#	150
#	11023
#	25291
#	37442
#	49037
#	63834
#	75890
#	91460
#	107768
#	122437
#	134889
#	153983
#
# Disc length: 2234 seconds
#
# Revision: 1
# Processed by: cddbd v1.5.2PL0 Copyright (c) Steve Scherf et al.
# Submitted via: audiograbber 1.83.01
#
DISCID=9908b80c
DTITLE=Stacy and Joe - Mountian Bluegrass
DYEAR=1900
DGENRE=Bluegrass
TTITLE0=New Pair Glasses
TTITLE1=You Torture My mind
TTITLE2=True Life Blues
TTITLE3=Blue Ridge Mountain Blues
TTITLE4=Little White Lies
TTITLE5=I'll Take The Blame
TTITLE6=Muleskinner Blues
TTITLE7=Somebody Loves You Darling
TTITLE8=Kentucky Waltz
TTITLE9=Strollin In the Moonlight
TTITLE10=Man Of Constant Sorrow
TTITLE11=Old Kentucky Hills
EXTD=
EXTT0=
EXTT1=
EXTT2=
EXTT3=
EXTT4=
EXTT5=
EXTT6=
EXTT7=
EXTT8=
EXTT9=
EXTT10=
EXTT11=
PLAYORDER=
